<?xml version="1.0" encoding="UTF-8"?>
<svg xmlns="http://www.w3.org/2000/svg" viewBox="0 0 640 360" fill="none">
  <rect width="640" height="360" fill="#FDFAE7"/>
  <rect x="48" y="28" width="544" height="272" rx="8" stroke="#1E2BFA" stroke-opacity="0.35" stroke-width="2"/>
  <rect x="64" y="44" width="512" height="18" rx="3" fill="#1E2BFA" fill-opacity="0.12"/>
  <rect x="64" y="84" width="220" height="28" rx="4" fill="#111111" fill-opacity="0.78"/>
  <rect x="64" y="124" width="180" height="10" rx="2" fill="#1E2BFA" fill-opacity="0.25"/>
  <rect x="64" y="148" width="200" height="8" rx="2" fill="#111111" fill-opacity="0.18"/>
  <rect x="64" y="164" width="160" height="8" rx="2" fill="#111111" fill-opacity="0.12"/>
  <rect x="300" y="84" width="260" height="160" rx="8" stroke="#1E2BFA" stroke-opacity="0.4" stroke-width="1.5" stroke-dasharray="6 4"/>
  <rect x="320" y="104" width="120" height="10" rx="2" fill="#1E2BFA" fill-opacity="0.2"/>
  <rect x="320" y="128" width="220" height="8" rx="2" fill="#111111" fill-opacity="0.14"/>
  <rect x="320" y="148" width="200" height="8" rx="2" fill="#111111" fill-opacity="0.1"/>
  <rect x="320" y="168" width="180" height="8" rx="2" fill="#111111" fill-opacity="0.1"/>
  <rect x="64" y="268" width="512" height="14" rx="2" fill="#1E2BFA" fill-opacity="0.08"/>
  <g transform="translate(48 318)">
    <rect x="0" y="0" width="40" height="8" rx="2" fill="#1E2BFA"/>
    <rect x="48" y="0" width="40" height="8" rx="2" fill="#1E2BFA" fill-opacity="0.35"/>
    <rect x="96" y="0" width="40" height="8" rx="2" fill="#1E2BFA" fill-opacity="0.2"/>
    <rect x="152" y="0" width="2" height="8" fill="#1E2BFA" fill-opacity="0.4"/>
    <rect x="162" y="0" width="40" height="8" rx="2" fill="#1E2BFA" fill-opacity="0.2"/>
    <rect x="210" y="0" width="40" height="8" rx="2" fill="#1E2BFA" fill-opacity="0.2"/>
  </g>
</svg>